<?xml version="1.0" encoding="UTF-8"?>
<svg version="1.1" xmlns="http://www.w3.org/2000/svg" width="500" height="500">
<path d="M0 0 C165 0 330 0 500 0 C500 165 500 330 500 500 C335 500 170 500 0 500 C0 335 0 170 0 0 Z " fill="#FCFCFC" transform="translate(0,0)"/>
<path d="M0 0 C1.64482537 0.41507977 3.28992731 0.82906491 4.93528748 1.24201965 C9.25001089 2.32831885 13.56053479 3.43046167 17.87042236 4.5357666 C21.34423803 5.42386313 24.82083056 6.30076279 28.29765415 7.17699718 C32.51188157 8.23927004 36.72488654 9.30634651 40.9375 10.375 C41.71441256 10.57206228 42.49132511 10.76912457 43.29178047 10.97215843 C52.45220037 13.30107746 61.58239729 15.71667356 70.67988682 18.28135967 C78.43163982 20.46261816 86.24127624 22.40184064 94.05859375 24.33203125 C95.51828562 24.69443414 96.9779212 25.05706387 98.4375 25.41992188 C101.93555872 26.2890506 105.43434858 27.15518999 108.93359375 28.01953125 C108.93359375 29.33953125 108.93359375 30.65953125 108.93359375 32.01953125 C104.51899954 33.1941382 100.10160308 34.35784149 95.68359375 35.51953125 C94.42933594 35.85339844 93.17507813 36.18726563 91.8828125 36.53125 C90.67753906 36.84707031 89.47226562 37.16289062 88.23046875 37.48828125 C87.12026367 37.78154297 86.01005859 38.07480469 84.86621094 38.37695312 C81.93359375 39.01953125 81.93359375 39.01953125 77.93359375 39.01953125 C77.93359375 55.18953125 77.93359375 71.35953125 77.93359375 88.01953125 C78.59359375 88.01953125 79.25359375 88.01953125 79.93359375 88.01953125 C79.96046654 89.83195177 79.9799309 91.64448358 79.99609375 93.45703125 C80.00769531 94.46636719 80.01929688 95.47570312 80.03125 96.515625 C79.93359375 99.01953125 79.93359375 99.01953125 78.93359375 100.01953125 C75.43359375 100.14453125 75.43359375 100.14453125 71.93359375 100.01953125 C70.93359375 99.01953125 70.93359375 99.01953125 70.8359375 96.515625 C70.85333984 95.00162109 70.85333984 95.00162109 70.87109375 93.45703125 C70.88011719 92.44511719 70.88914062 91.43320312 70.8984375 90.390625 C70.91583984 89.21693359 70.91583984 89.21693359 70.93359375 88.01953125 C71.59359375 88.01953125 72.25359375 88.01953125 72.93359375 88.01953125 C72.93359375 72.50953125 72.93359375 56.99953125 72.93359375 41.01953125 C67.98359375 42.33953125 63.03359375 43.65953125 57.93359375 45.01953125 C54.26002805 45.73284498 50.62370975 46.43647758 46.93359375 47.01953125 C46.93883057 47.80191162 46.94406738 48.58429199 46.94946289 49.39038086 C46.97016481 52.91258958 46.98323213 56.43478555 46.99609375 59.95703125 C47.00447266 61.18873047 47.01285156 62.42042969 47.02148438 63.68945312 C47.02470703 64.85927734 47.02792969 66.02910156 47.03125 67.234375 C47.03648682 68.318396 47.04172363 69.40241699 47.04711914 70.51928711 C46.93359375 73.01953125 46.93359375 73.01953125 45.93359375 74.01953125 C42.10115401 74.41260199 39.10790558 73.83219164 35.51171875 72.63671875 C29.46279145 70.7746618 23.37300572 69.81231046 17.12109375 68.89453125 C16.03505859 68.72566406 14.94902344 68.55679688 13.83007812 68.3828125 C0.54900017 66.38079838 -12.65467979 65.7834769 -26.06640625 65.76953125 C-27.21743835 65.76752213 -27.21743835 65.76752213 -28.39172363 65.76547241 C-40.84659347 65.77016784 -52.82305726 66.61370493 -65.06640625 69.01953125 C-66.51676463 69.28604184 -67.9672823 69.55168725 -69.41796875 69.81640625 C-74.27084686 70.72875191 -79.0528655 71.72691907 -83.80078125 73.09765625 C-86.77594706 73.93753559 -89.00526663 74.2896318 -92.06640625 74.01953125 C-93.06640625 73.01953125 -93.06640625 73.01953125 -93.17993164 71.25366211 C-93.17469482 70.50479736 -93.16945801 69.75593262 -93.1640625 68.984375 C-93.16083984 68.17548828 -93.15761719 67.36660156 -93.15429688 66.53320312 C-93.14172852 65.25799805 -93.14172852 65.25799805 -93.12890625 63.95703125 C-93.12439453 63.10302734 -93.11988281 62.24902344 -93.11523438 61.36914062 C-93.10340998 59.25257462 -93.08547394 57.1360444 -93.06640625 55.01953125 C-68.20868634 44.09219054 -40.87171873 41.73006481 -14.06640625 40.01953125 C-37.75577533 39.62352379 -60.90120468 39.55348266 -83.96118164 45.83691406 C-93.8290081 48.35717935 -103.46637013 45.3715667 -113.07421875 42.859375 C-114.88416824 42.39538048 -114.88416824 42.39538048 -116.73068237 41.92201233 C-119.90482805 41.10691148 -123.07726165 40.28555044 -126.2489624 39.46099854 C-129.4992286 38.61771659 -132.75165963 37.78287054 -136.00390625 36.94726562 C-142.36007368 35.31236876 -148.71405394 33.66918577 -155.06640625 32.01953125 C-155.06640625 30.69953125 -155.06640625 29.37953125 -155.06640625 28.01953125 C-154.40480499 27.85524124 -153.74320374 27.69095123 -153.06155396 27.52168274 C-146.73860139 25.95108307 -140.41625939 24.37804998 -134.09454536 22.80247211 C-130.84671176 21.99309151 -127.59860956 21.1848305 -124.35009766 20.37817383 C-107.09049199 16.12148265 -107.09049199 16.12148265 -89.9296875 11.48828125 C-79.23563783 8.45649109 -68.45688862 5.76250162 -57.66870117 3.08813477 C-55.29493195 2.49727104 -52.92253964 1.90084976 -50.55151367 1.29907227 C-47.07119416 0.41603464 -43.58702103 -0.4499999 -40.1015625 -1.3125 C-39.05549332 -1.58117386 -38.00942413 -1.84984772 -36.93165588 -2.12666321 C-23.71182741 -5.3470473 -12.92367324 -3.33907907 0 0 Z " fill="#030303" transform="translate(273.06640625,165.98046875)"/>
<path d="M0 0 C6.49989164 3.64325137 11.46746805 8.83391131 13.75 16 C14.8318411 24.68889219 13.86690209 31.79594047 8.75 39 C4.36058015 44.00442098 -0.95433341 46.59857898 -7.45703125 47.390625 C-15.9027611 47.79323834 -21.78254312 46.59612967 -28.25 41 C-34.03672861 34.76182448 -35.80119669 28.45411682 -35.6171875 20.1328125 C-34.75058516 12.73903508 -31.47829275 7.63810014 -25.75 3 C-17.81257438 -2.8133258 -9.09959455 -4.1260757 0 0 Z " fill="#090909" transform="translate(356.25,276)"/>
<path d="M0 0 C5.98615591 3.30888303 11.37020738 8.49100617 13.8125 15 C14.60154604 22.67451097 15.3595674 31.01617383 10.3671875 37.390625 C3.83554843 44.15202022 -1.32606248 47.25317991 -11.0625 47.4375 C-18.65967044 47.30954766 -22.5326147 45.52106799 -27.89453125 40.35546875 C-33.25748176 34.57496491 -35.85927361 28.55338036 -35.60546875 20.625 C-34.50340066 13.70360043 -30.69500805 7.28361737 -25.1875 3 C-16.77443241 -2.4084006 -9.34799057 -4.15780519 0 0 Z " fill="#070707" transform="translate(412.1875,276)"/>
<path d="M0 0 C24.13402062 0 24.13402062 0 31.3046875 5.89453125 C36.53594 12.28394662 39.70594245 17.92970901 39.41015625 26.37890625 C38.28769066 33.55199586 34.56880411 39.18337592 29.0390625 43.74609375 C18.54222749 50.20104401 14.34824298 48 0 48 C0 32.16 0 16.32 0 0 Z " fill="#080808" transform="translate(275,275)"/>
<path d="M0 0 C21.78 0 43.56 0 66 0 C66 2.31 66 4.62 66 7 C62.04 7 58.08 7 54 7 C54 20.53 54 34.06 54 48 C51.36 48 48.72 48 46 48 C46 34.47 46 20.94 46 7 C37.42 7 28.84 7 20 7 C20 20.53 20 34.06 20 48 C17.36 48 14.72 48 12 48 C12 34.47 12 20.94 12 7 C8.04 7 4.08 7 0 7 C0 4.69 0 2.38 0 0 Z " fill="#050505" transform="translate(113,275)"/>
<path d="M0 0 C9 0 9 0 11.13232422 1.50610352 C11.6017041 2.20662842 12.07108398 2.90715332 12.5546875 3.62890625 C13.37525635 4.80102661 13.37525635 4.80102661 14.21240234 5.99682617 C14.76105957 6.84349854 15.3097168 7.6901709 15.875 8.5625 C17.07266383 10.29965351 18.2705841 12.03663025 19.46875 13.7734375 C20.0565625 14.64838867 20.644375 15.52333984 21.25 16.42480469 C23.85421922 20.2570179 26.61405547 23.9676595 29.375 27.6875 C30.90125 29.770625 32.4275 31.85375 34 34 C34.33 22.78 34.66 11.56 35 0 C37.64 0 40.28 0 43 0 C43 15.84 43 31.68 43 48 C34 48 34 48 31.4609375 45.640625 C30.77257812 44.52171875 30.08421875 43.4028125 29.375 42.25 C28.55622597 40.97909239 27.73300822 39.71104071 26.90625 38.4453125 C26.45765625 37.74438477 26.0090625 37.04345703 25.546875 36.32128906 C22.5205734 31.77992611 19.17135079 27.47193795 15.875 23.125 C13.60625 20.11375 11.3375 17.1025 9 14 C8.67 25.22 8.34 36.44 8 48 C5.36 48 2.72 48 0 48 C0 32.16 0 16.32 0 0 Z " fill="#090909" transform="translate(222,275)"/>
<path d="M0 0 C3.3 0 6.6 0 10 0 C12.42308569 6.674479 14.84410763 13.34970144 17.26318359 20.02563477 C18.08715426 22.29862924 18.91169778 24.57141613 19.73681641 26.84399414 C20.91978687 30.10248841 22.10072394 33.36171323 23.28125 36.62109375 C23.65310425 37.64400009 24.0249585 38.66690643 24.40808105 39.72080994 C24.74843384 40.66170975 25.08878662 41.60260956 25.43945312 42.57202148 C25.7414563 43.40475082 26.04345947 44.23748016 26.35461426 45.09544373 C27 47 27 47 27 48 C24.03 48 21.06 48 18 48 C17.01 45.03 16.02 42.06 15 39 C8.4 39 1.8 39 -5 39 C-5.99 41.97 -6.98 44.94 -8 48 C-10.97 48 -13.94 48 -17 48 C-11.76666111 31.83210205 -5.98206532 15.90451074 0 0 Z " fill="#080808" transform="translate(86,275)"/>
<path d="M0 0 C4.3902459 2.50244016 6.95719188 5.79387867 8.75 10.5 C9.74108087 16.13200766 9.03130224 20.73681932 5.75 25.5 C1.40518465 29.87562964 -1.7147637 32.333755 -8.0625 32.75 C-12.96639614 32.65138417 -16.36835924 31.36401415 -19.91796875 27.84765625 C-24.18845625 23.04969761 -25.68446264 19.36917331 -25.58984375 12.9140625 C-24.89977323 8.01218225 -22.34678839 4.34704684 -18.67578125 1.11328125 C-12.83856234 -2.76459146 -6.34362351 -2.6760295 0 0 Z " fill="#F7F7F7" transform="translate(410.25,283.5)"/>
<path d="M0 0 C3.79275543 2.61278707 6.75795532 4.72358694 8.8125 8.9375 C9.78972441 14.48161981 10.18502261 20.12242811 7.6640625 25.29296875 C4.24929438 29.52981068 0.15808532 32.31653909 -5.25 33.3203125 C-10.98742912 33.77850996 -14.73015945 32.1130618 -19.30078125 28.70703125 C-23.14847354 25.09832606 -24.29583778 21.05346407 -24.5625 15.9375 C-24.34126575 11.17174553 -23.10903167 6.96928349 -19.7578125 3.42578125 C-13.83824989 -1.71334152 -7.32699646 -2.44233215 0 0 Z " fill="#F8F8F8" transform="translate(353.1875,283.0625)"/>
<path d="M0 0 C9.24 0 18.48 0 28 0 C28 2.31 28 4.62 28 7 C21.4 7 14.8 7 8 7 C8 11.29 8 15.58 8 20 C13.94 20 19.88 20 26 20 C26 22.64 26 25.28 26 28 C20.39 28 14.78 28 9 28 C9 32.29 9 36.58 9 41 C15.27 41 21.54 41 28 41 C28 43.31 28 45.62 28 48 C18.76 48 9.52 48 0 48 C0 32.16 0 16.32 0 0 Z " fill="#0F0F0F" transform="translate(185,275)"/>
<path d="M0 0 C13.62025316 0 13.62025316 0 19 5 C22.61345252 9.12527299 23.67115134 13.29794266 23.375 18.73046875 C22.43317816 24.430453 20.12726061 28.5717561 15.4375 32 C11 34 11 34 0 34 C0 22.78 0 11.56 0 0 Z " fill="#F7F7F7" transform="translate(283,282)"/>
<path d="M0 0 C0.66 0 1.32 0 2 0 C3.00990692 2.91333079 4.00615952 5.83115319 5 8.75 C5.28617188 9.575 5.57234375 10.4 5.8671875 11.25 C6.13789062 12.04921875 6.40859375 12.8484375 6.6875 13.671875 C7.06455078 14.77160645 7.06455078 14.77160645 7.44921875 15.89355469 C8 18 8 18 8 22 C3.38 22 -1.24 22 -6 22 C-5.40421223 16.73378394 -4.18691204 12.05591981 -2.4375 7.0625 C-2.20353516 6.37865234 -1.96957031 5.69480469 -1.72851562 4.99023438 C-1.15788171 3.32491499 -0.57972902 1.66217507 0 0 Z " fill="#E9E9E9" transform="translate(90,284)"/>
</svg>
